# Blender v2.78 (sub 0) OBJ File: 'cube.blend'
# www.blender.org
o Cube
v 0.957443 -0.911334 -0.987665
v 0.957443 -0.911334 1.012335
v -1.042557 -0.911334 1.012335
v -1.042556 -0.911334 -0.987666
v 0.957444 1.088666 -0.987665
v 0.957443 1.088666 1.012336
v -1.042557 1.088666 1.012335
v -1.042557 1.088666 -0.987665
v 0.957443 -0.911334 -0.987665
v 0.957443 -0.911334 1.012335
v 0.957444 1.088666 -0.987665
v 0.957444 1.088666 -0.987665
v 0.957443 1.088666 1.012336
v 0.957443 1.088666 1.012336
v -1.042557 1.088666 -0.987665
v -1.042557 1.088666 1.012335
vt 0.4942 0.0040
vt 0.0056 0.3292
vt 0.0068 0.0037
vt 0.4880 0.6750
vt 0.0093 0.9940
vt 0.0083 0.6732
vt 0.9944 0.0032
vt 0.5064 0.3295
vt 0.9934 0.3280
vt 0.0062 0.6625
vt 0.4946 0.3373
vt 0.0068 0.3399
vt 0.5069 0.6716
vt 0.9941 0.9960
vt 0.9953 0.6719
vt 0.5082 0.3285
vt 0.9906 0.0082
vt 0.5086 0.0049
vt 0.4937 0.3288
vt 0.4898 0.9942
vt 0.5071 0.0043
vt 0.4946 0.6634
vt 0.5074 0.9959
vt 0.9919 0.3289
vn 0.0000 -0.7071 0.7071
vn -0.5773 -0.5773 -0.5773
vn 0.0000 -0.7071 -0.7071
vn 0.0000 1.0000 0.0000
vn 1.0000 0.0000 0.0000
vn 0.0000 0.0000 1.0000
vn -0.5773 -0.5773 0.5773
vn -0.7071 0.0000 0.7071
vn -0.7071 0.0000 -0.7071
vn 0.0000 0.0000 -1.0000
s 1
f 10/1/1 4/2/2 9/3/3
f 8/4/4 14/5/4 12/6/4
f 11/7/5 2/8/5 1/9/5
f 6/10/6 3/11/7 10/12/1
f 16/13/8 4/14/2 3/15/7
f 9/16/3 15/17/9 5/18/10
f 10/1/1 3/19/7 4/2/2
f 8/4/4 7/20/4 14/5/4
f 11/7/5 13/21/5 2/8/5
f 6/10/6 16/22/8 3/11/7
f 16/13/8 15/23/9 4/14/2
f 9/16/3 4/24/2 15/17/9